<?xml version="1.0" encoding="utf-8"?>
<svg xmlns="http://www.w3.org/2000/svg" viewBox="7.1709 12.4814 483.4394 241.1395" width="483.439px" height="241.139px">
  <g transform="matrix(0.040745001286268234, 0, 0, -0.040745001286268234, -25.628829956054744, 299.66278076171875)" fill="#000000" stroke="none" style="">
    <path d="M6130 7040 l-575 -5 -3 -1767 -2 -1768 -590 0 -590 0 0 1770 0 1770 -595 0 -595 0 0 -1770 0 -1770 -590 0 -590 0 -2 1768 -3 1767 -595 0 -595 0 0 -1765 0 -1765 595 -5 595 -5 3 -1183 2 -1182 588 2 587 3 3 1182 2 1183 595 0 595 0 0 -1185 0 -1185 588 2 587 3 5 1180 5 1180 593 3 592 2 0 1769 c0 1604 -1 1769 -16 1775 -9 3 -16 5 -17 4 -1 -2 -261 -5 -577 -8z"/>
    <path fill="#FF0000" d="M9120 6455 l0 -585 1178 2 1177 3 0 580 0 580 -1177 3 -1178 2 0 -585z"/>
    <path d="M7940 5848 c0 -7 -1 -1070 -3 -2361 -2 -2341 -2 -2348 18 -2353 11 -2 274 -3 585 -2 l565 3 2 1155 c1 635 2 1167 3 1183 l0 27 1188 -2 1187 -3 5 -1180 5 -1180 565 -3 c311 -1 575 0 588 3 l22 5 -2 2358 -3 2357 -587 3 -588 2 0 -579 c0 -319 -3 -586 -6 -595 -6 -14 -119 -16 -1184 -16 -904 0 -1181 3 -1186 12 -4 7 -8 273 -8 592 l-1 581 -582 3 c-463 2 -583 0 -583 -10z"/>
  </g>
</svg>